<svg xmlns="http://www.w3.org/2000/svg" viewBox="0 0 256 168.59"
   width="32"
   height="32">
  <defs>
    <style>.cls-1{fill:#333;}</style>
  </defs>
  <title>cubecode_black</title>
  <g id="Layer_2" data-name="Layer 2">
    <g id="Layer_1-2" data-name="Layer 1">
      <polygon class="cls-1" points="44.15 39.9 83.85 0 123.54 39.9 83.85 79.81 44.15 39.9"/>
      <polygon class="cls-1" points="0 84.29 39.69 44.39 79.39 84.29 39.69 124.19 0 84.29"/>
      <polygon class="cls-1" points="44.16 128.68 83.85 88.78 123.54 128.68 83.85 168.59 44.16 128.68"/>
      <polygon class="cls-1" points="132.46 39.9 172.15 0 211.85 39.9 172.15 79.81 132.46 39.9"/>
      <polygon class="cls-1" points="176.61 84.29 216.31 44.39 256 84.29 216.31 124.2 176.61 84.29"/>
      <polygon class="cls-1" points="132.46 128.68 172.15 88.78 211.84 128.68 172.15 168.59 132.46 128.68"/>
    </g>
  </g>
</svg>