<?xml version="1.0" encoding="UTF-8" standalone="no"?>
<!-- Created with Inkscape (http://www.inkscape.org/) -->

<svg
   xmlns:dc="http://purl.org/dc/elements/1.1/"
   xmlns:cc="http://creativecommons.org/ns#"
   xmlns:rdf="http://www.w3.org/1999/02/22-rdf-syntax-ns#"
   xmlns:svg="http://www.w3.org/2000/svg"
   xmlns="http://www.w3.org/2000/svg"
   xmlns:sodipodi="http://sodipodi.sourceforge.net/DTD/sodipodi-0.dtd"
   xmlns:inkscape="http://www.inkscape.org/namespaces/inkscape"
   width="24"
   height="24"
   id="svg2"
   version="1.1"
   inkscape:version="0.92.3 (2405546, 2018-03-11)"
   sodipodi:docname="cluster-green.svg"
   inkscape:export-filename="/home/thockin/src/kubernetes/new.png"
   inkscape:export-xdpi="460.95001"
   inkscape:export-ydpi="460.95001">
  <defs
     id="defs4" />
  <sodipodi:namedview
     id="base"
     pagecolor="#ffffff"
     bordercolor="#666666"
     borderopacity="1.0"
     inkscape:pageopacity="0.0"
     inkscape:pageshadow="2"
     inkscape:zoom="8.0952545"
     inkscape:cx="49.039558"
     inkscape:cy="21.348054"
     inkscape:document-units="px"
     inkscape:current-layer="layer1"
     showgrid="false"
     inkscape:window-width="1920"
     inkscape:window-height="1017"
     inkscape:window-x="-8"
     inkscape:window-y="-8"
     inkscape:window-maximized="1"
     inkscape:snap-global="false"
     fit-margin-top="10"
     fit-margin-left="10"
     fit-margin-right="10"
     fit-margin-bottom="10" />
  <metadata
     id="metadata7">
    <rdf:RDF>
      <cc:Work
         rdf:about="">
        <dc:format>image/svg+xml</dc:format>
        <dc:type
           rdf:resource="http://purl.org/dc/dcmitype/StillImage" />
        <dc:title></dc:title>
      </cc:Work>
    </rdf:RDF>
  </metadata>
  <g
     inkscape:label="Layer 1"
     inkscape:groupmode="layer"
     id="layer1"
     transform="translate(-6.3260942,-852.71877)">
    <g
       id="g3052"
       transform="matrix(0.03319767,0,0,0.03319767,6.0254303,847.03562)">
      <path
         style="fill:none;fill-opacity:1;stroke:#c5c5c5;stroke-width:0;stroke-miterlimit:4;stroke-dasharray:none;stroke-opacity:1"
         d="m 365.3125,184.8125 a 46.724621,46.342246 0 0 0 -17.90625,4.53125 l -244.34375,116.75 a 46.724621,46.342246 0 0 0 -25.28125,31.4375 L 17.5,599.78125 A 46.724621,46.342246 0 0 0 23.84375,635.3125 46.724621,46.342246 0 0 0 26.5,639 l 169.125,210.28125 a 46.724621,46.342246 0 0 0 36.53125,17.4375 L 503.375,866.65625 A 46.724621,46.342246 0 0 0 539.90625,849.25 L 708.96875,638.9375 A 46.724621,46.342246 0 0 0 718,599.71875 l -60.375,-262.25 a 46.724621,46.342246 0 0 0 -25.28125,-31.4375 l -244.375,-116.6875 A 46.724621,46.342246 0 0 0 365.3125,184.8125 Z"
         id="path3055"
         inkscape:connector-curvature="0"
         inkscape:export-filename="new.png"
         inkscape:export-xdpi="250.55"
         inkscape:export-ydpi="250.55" />
      <path
         inkscape:connector-curvature="0"
         id="path3059"
         d="m 367.73366,274.05962 c -8.07696,8.2e-4 -14.62596,7.27591 -14.625,16.25 1e-5,0.13773 0.0282,0.26934 0.0312,0.40625 -0.0119,1.21936 -0.0708,2.68836 -0.0312,3.75 0.19262,5.176 1.3209,9.13749 2,13.90625 1.23028,10.20666 2.26117,18.66736 1.625,26.53125 -0.61869,2.9654 -2.80288,5.67741 -4.75,7.5625 l -0.34375,6.1875 c -8.77682,0.72717 -17.61235,2.05874 -26.4375,4.0625 -37.97461,8.62218 -70.67008,28.18307 -95.5625,54.59375 -1.61522,-1.10193 -4.44103,-3.12914 -5.2813,-3.75 -2.61117,0.35262 -5.25021,1.15829 -8.6875,-0.84375 -6.54491,-4.40563 -12.50587,-10.48693 -19.71875,-17.8125 -3.30498,-3.50419 -5.69832,-6.84101 -9.625,-10.21875 -0.89172,-0.76707 -2.25258,-1.80455 -3.25,-2.59375 -3.06988,-2.44757 -6.6907,-3.72402 -10.1875,-3.84375 -4.49589,-0.15394 -8.82394,1.60385 -11.65625,5.15625 -5.03521,6.31538 -3.42312,15.96805 3.59375,21.5625 0.0712,0.0567 0.14702,0.10078 0.21875,0.15625 0.96422,0.78162 2.14496,1.78313 3.03125,2.4375 4.16687,3.07655 7.9732,4.65145 12.125,7.09375 8.747,5.40181 15.99837,9.88086 21.75,15.28125 2.24602,2.39417 2.63858,6.61292 2.9375,8.4375 l 4.6875,4.1875 c -25.09342,37.76368 -36.70686,84.40946 -29.8437,131.9375 l -6.125,1.78125 c -1.6143,2.08461 -3.89541,5.36474 -6.2813,6.34375 -7.52513,2.37021 -15.99424,3.24059 -26.21875,4.3125 -4.80031,0.39915 -8.94218,0.16095 -14.03125,1.125 -1.12008,0.21218 -2.68072,0.61877 -3.90625,0.90625 -0.0426,0.009 -0.0824,0.0216 -0.125,0.0312 -0.0668,0.0155 -0.15456,0.0479 -0.21875,0.0625 -8.62014,2.08279 -14.15774,10.006 -12.375,17.8125 1.78316,7.80833 10.20314,12.55677 18.875,10.6875 0.0626,-0.0143 0.1535,-0.0167 0.21875,-0.0312 0.0979,-0.0224 0.18409,-0.0699 0.28125,-0.0937 1.20885,-0.26536 2.72377,-0.5606 3.78125,-0.84375 5.00334,-1.33963 8.62694,-3.30796 13.125,-5.03125 9.67694,-3.47077 17.69173,-6.37022 25.5,-7.5 3.26118,-0.25542 6.69711,2.01216 8.40625,2.96875 l 6.375,-1.09375 c 14.67018,45.48282 45.41416,82.24502 84.34375,105.3125 l -2.65625,6.375 c 0.95742,2.47542 2.01341,5.8247 1.30022,8.26932 -2.83868,7.3612 -7.70097,15.13097 -13.23772,23.79318 -2.68085,4.00192 -5.42453,7.10761 -7.84375,11.6875 -0.5789,1.09589 -1.31618,2.77932 -1.875,3.9375 -3.75884,8.04236 -1.00164,17.3052 6.21875,20.78125 7.26575,3.49788 16.28447,-0.19134 20.1875,-8.25 0.006,-0.0114 0.0257,-0.0198 0.0312,-0.0312 0.004,-0.009 -0.004,-0.0225 0,-0.0312 0.55593,-1.14255 1.34353,-2.64437 1.8125,-3.71875 2.07213,-4.74702 2.76161,-8.81506 4.21875,-13.40625 3.86962,-9.72014 5.99567,-19.91903 11.32258,-26.27411 1.45868,-1.74023 3.83681,-2.4095 6.30242,-3.06964 l 3.3125,-6 c 33.93824,13.0268 71.92666,16.52246 109.875,7.90625 8.65697,-1.96557 17.01444,-4.50945 25.09375,-7.5625 0.93098,1.65133 2.66113,4.8257 3.125,5.625 2.50559,0.81518 5.24044,1.23614 7.46875,4.53125 3.98539,6.80898 6.7109,14.86416 10.03125,24.59375 1.45738,4.59111 2.17762,8.65933 4.25,13.40625 0.47234,1.08195 1.256,2.60486 1.8125,3.75 3.89482,8.08484 12.94212,11.78667 20.21875,8.28125 7.2195,-3.4779 9.97974,-12.7399 6.21875,-20.78125 -0.55889,-1.15814 -1.3273,-2.84164 -1.90625,-3.9375 -2.41946,-4.57976 -5.1627,-7.65448 -7.84375,-11.65625 -5.53721,-8.66192 -10.12968,-15.8577 -12.96875,-23.21875 -1.18711,-3.79657 0.20028,-6.15774 1.125,-8.625 -0.55378,-0.63477 -1.73881,-4.22009 -2.4375,-5.90625 40.4574,-23.88816 70.29856,-62.02129 84.3125,-106.0625 1.8924,0.29742 5.18154,0.87936 6.25,1.09375 2.19954,-1.4507 4.22194,-3.34352 8.1875,-3.03125 7.80832,1.12937 15.82288,4.02973 25.5,7.5 4.49815,1.72306 8.1216,3.72313 13.125,5.0625 1.05749,0.28309 2.57238,0.5472 3.78125,0.8125 0.0972,0.0238 0.1833,0.0714 0.28125,0.0937 0.0653,0.0146 0.15615,0.0169 0.21875,0.0312 8.67236,1.86695 17.09384,-2.87871 18.875,-10.6875 1.78074,-7.80696 -3.7543,-15.73201 -12.375,-17.8125 -1.25393,-0.28513 -3.03225,-0.76938 -4.25,-1 -5.08912,-0.96378 -9.23092,-0.7261 -14.03125,-1.125 -10.22456,-1.07138 -18.6935,-1.94269 -26.21875,-4.3125 -3.06826,-1.19028 -5.25103,-4.84124 -6.31255,-6.34375 l -5.90625,-1.71875 c 3.06226,-22.15442 2.23655,-45.21134 -3.0625,-68.28125 -5.34839,-23.28471 -14.80037,-44.58084 -27.40625,-63.34375 1.51505,-1.37729 4.37619,-3.91091 5.1875,-4.65625 0.23716,-2.62417 0.0334,-5.37553 2.75,-8.28125 5.75134,-5.40069 13.00329,-9.87898 21.75,-15.28125 4.15167,-2.44252 7.98954,-4.01698 12.15625,-7.09375 0.94225,-0.69576 2.2289,-1.79759 3.21875,-2.59375 7.01538,-5.59633 8.63058,-15.24842 3.59375,-21.5625 -5.03683,-6.31408 -14.79712,-6.90883 -21.8125,-1.3125 -0.99856,0.79085 -2.35353,1.82252 -3.25,2.59375 -3.9265,3.37796 -6.35145,6.71439 -9.65625,10.21875 -7.21249,7.32595 -13.17407,13.43777 -19.71875,17.84375 -2.83601,1.65106 -6.98996,1.07978 -8.87505,0.96875 l -5.5625,3.96875 c -31.7188,-33.26057 -74.90466,-54.52546 -121.40605,-58.6563 -0.13006,-1.94872 -0.30045,-5.47117 -0.34375,-6.53125 -1.90371,-1.82165 -4.20342,-3.37686 -4.78125,-7.3125 -0.63617,-7.86389 0.42597,-16.32459 1.65625,-26.53125 0.6791,-4.76876 1.80738,-8.73025 2,-13.90625 0.0438,-1.17663 -0.0265,-2.88401 -0.0312,-4.15625 -9.6e-4,-8.97409 -6.54804,-16.25082 -14.625,-16.25 z m -18.3125,113.4375 -4.34375,76.71875 -0.3125,0.15625 c -0.29134,6.86335 -5.93996,12.34375 -12.875,12.34375 -2.84081,0 -5.46294,-0.91229 -7.59375,-2.46875 l -0.125,0.0625 -62.90625,-44.59375 c 19.33365,-19.01115 44.06291,-33.06039 72.5625,-39.53125 5.20599,-1.18203 10.40966,-2.0591 15.59375,-2.6875 z m 36.65625,0 c 33.27347,4.09232 64.04501,19.15882 87.625,42.25 l -62.5,44.3125 -0.21875,-0.0937 c -5.54745,4.05169 -13.36343,3.04639 -17.6875,-2.375 -1.77132,-2.22096 -2.70072,-4.83239 -2.8125,-7.46875 l -0.0625,-0.0312 z m -147.625,70.875 57.4375,51.375 -0.0625,0.3125 c 5.18437,4.50697 5.94888,12.32794 1.625,17.75 -1.7712,2.22105 -4.14208,3.71074 -6.6875,4.40625 l -0.0625,0.25 -73.625,21.25 c -3.74728,-34.26517 4.32855,-67.57364 21.375,-95.34375 z m 258.15625,0.0312 c 8.5341,13.83256 14.99655,29.28214 18.84375,46.03125 3.80106,16.54828 4.75499,33.06697 3.1875,49.03125 l -74,-21.3125 -0.0625,-0.3125 c -6.6265,-1.81104 -10.69893,-8.55162 -9.15625,-15.3125 0.63203,-2.76962 2.10222,-5.11264 4.09375,-6.84375 l -0.0312,-0.15625 57.125,-51.125 z m -140.65625,55.3125 h 23.53125 l 14.625,18.28125 -5.25,22.8125 -21.125,10.15625 -21.1875,-10.1875 -5.25,-22.8125 z m 75.4375,62.5625 c 0.99997,-0.0505 1.99558,0.0396 2.96875,0.21875 l 0.125,-0.15625 76.15625,12.875 c -11.1455,31.3131 -32.47281,58.44018 -60.96875,76.59375 l -29.5625,-71.40625 0.0937,-0.125 c -2.71561,-6.30999 0.002,-13.70956 6.25,-16.71875 1.59965,-0.77041 3.27089,-1.19701 4.9375,-1.28125 z m -127.90625,0.3125 c 5.81174,0.0815 11.02462,4.11525 12.375,10.03125 0.63219,2.76958 0.3245,5.51375 -0.71875,7.9375 l 0.21875,0.28125 -29.25,70.6875 c -27.34716,-17.5486 -49.12927,-43.82403 -60.78125,-76.06245 l 75.5,-12.8125 0.125,0.15625 c 0.84451,-0.15541 1.701,-0.2304 2.53125,-0.21875 z m 63.78125,30.9688 c 2.02445,-0.0744 4.07865,0.34098 6.03125,1.28125 2.55951,1.23253 4.53673,3.17319 5.78125,5.5 h 0.28125 l 37.21875,67.25 c -4.83029,1.61923 -9.79609,3.00308 -14.875,4.15625 -28.46453,6.4629 -56.83862,4.50467 -82.53125,-4.25 l 37.125,-67.125 h 0.0625 c 2.22767,-4.16441 6.45247,-6.64887 10.90625,-6.8125 z"
         style="color:#000000;font-style:normal;font-variant:normal;font-weight:normal;font-stretch:normal;font-size:medium;line-height:normal;font-family:Sans;-inkscape-font-specification:Sans;text-indent:0;text-align:start;text-decoration:none;text-decoration-line:none;letter-spacing:normal;word-spacing:normal;text-transform:none;writing-mode:lr-tb;direction:ltr;baseline-shift:baseline;text-anchor:start;display:inline;overflow:visible;visibility:visible;fill:none;fill-opacity:1;stroke:#ffffff;stroke-width:0.25;stroke-miterlimit:4;stroke-dasharray:none;stroke-opacity:1;marker:none;enable-background:accumulate"
         sodipodi:nodetypes="ccccccccsccccscssccsccccccccscccsccccccccccccccscccscsccsccccscscsccccccccscccscsccccsccccscscscccccccccccccccscccsccccccccccccscccccscccccccccccccccccccccccscccscccccccccscccscccc"
         inkscape:export-filename="./path3059.png"
         inkscape:export-xdpi="250.55"
         inkscape:export-ydpi="250.55" />
    </g>
    <path
       style="fill:#c5c5c5;stroke-width:0.0656141"
       d="m 13.487307,875.50653 c -0.130788,-0.0255 -0.328066,-0.10355 -0.438395,-0.1734 -0.207216,-0.1312 -5.9023895,-7.16012 -6.0804117,-7.50438 -0.055038,-0.10643 -0.1000063,-0.33523 -0.09993,-0.50844 1.567e-4,-0.35681 1.9800323,-9.04296 2.1245019,-9.32065 0.051573,-0.0991 0.1672446,-0.24887 0.2570476,-0.33275 0.089803,-0.0839 2.0487282,-1.05755 4.3531682,-2.16373 4.159451,-1.99663 4.192987,-2.01125 4.61638,-2.01276 0.424882,-10e-4 0.441968,0.006 4.527372,1.95648 2.255484,1.0769 4.208027,2.02718 4.338984,2.11172 0.137261,0.0886 0.295006,0.27365 0.372457,0.4369 0.143457,0.30238 2.179214,9.05355 2.176318,9.3554 -9.74e-4,0.0987 -0.05262,0.28901 -0.114825,0.423 -0.143152,0.30834 -5.811133,7.36072 -6.055836,7.53497 -0.09987,0.0711 -0.335629,0.15851 -0.523909,0.19422 -0.390434,0.074 -9.074863,0.0772 -9.452923,0.003 z m 1.377297,-2.72258 c 0.190201,-0.0984 0.272645,-0.25873 0.565391,-1.09981 0.136279,-0.39153 0.227183,-0.54403 0.405285,-0.67988 0.229028,-0.17468 0.230445,-0.17486 0.568836,-0.0709 0.701976,0.21561 1.019396,0.25892 1.881167,0.25668 0.740143,-0.002 0.99327,-0.0305 1.539459,-0.17402 0.567737,-0.14912 0.660893,-0.15879 0.708612,-0.0735 0.03021,0.054 0.09701,0.0982 0.148418,0.0982 0.118559,0 0.229756,0.22125 0.45557,0.90645 0.272262,0.82614 0.597865,1.09339 0.972801,0.79846 0.293179,-0.23061 0.247142,-0.51981 -0.193249,-1.21394 -0.289028,-0.45556 -0.375929,-0.6531 -0.39388,-0.89533 -0.02268,-0.30601 -0.01821,-0.31411 0.28883,-0.52309 0.448732,-0.30543 1.231454,-1.07501 1.560905,-1.5347 0.270639,-0.37762 0.760637,-1.31462 0.833821,-1.59448 0.02571,-0.0983 0.110356,-0.14374 0.329107,-0.17654 0.242287,-0.0364 0.418743,-10e-4 0.995445,0.19787 0.742796,0.25648 0.924228,0.26138 1.154433,0.0312 0.1745,-0.1745 0.163326,-0.42983 -0.02714,-0.6203 -0.162574,-0.16257 -0.215394,-0.1761 -1.179318,-0.30196 -0.421524,-0.0551 -0.610524,-0.10987 -0.687126,-0.19933 -0.05812,-0.0679 -0.138222,-0.12341 -0.178012,-0.12341 -0.04877,0 -0.07244,-0.26199 -0.07264,-0.80377 -3.9e-4,-1.1703 -0.193494,-1.97588 -0.720624,-3.00675 l -0.287696,-0.56264 0.112116,-0.22473 c 0.133929,-0.26847 0.251684,-0.37105 0.790769,-0.68883 0.225152,-0.13272 0.483507,-0.31545 0.574123,-0.40607 0.327185,-0.32719 0.141408,-0.86862 -0.29804,-0.86862 -0.16262,0 -0.31705,0.11118 -0.820218,0.59053 -0.400661,0.38169 -0.672073,0.59088 -0.767468,0.59153 -0.08118,5.3e-4 -0.189877,0.0278 -0.241563,0.0604 -0.06877,0.0435 -0.203162,-0.0403 -0.50116,-0.31267 -0.798264,-0.72956 -2.172557,-1.3865 -3.126188,-1.49439 -0.344618,-0.039 -0.388258,-0.0627 -0.517053,-0.28034 -0.148142,-0.25039 -0.147804,-0.22513 -0.01979,-1.48443 0.03469,-0.34131 0.021,-0.41769 -0.10295,-0.57412 -0.159052,-0.20073 -0.479016,-0.24526 -0.684214,-0.0952 -0.153169,0.112 -0.22182,0.46603 -0.161601,0.83337 0.128963,0.78667 0.02059,1.49106 -0.236632,1.53807 -1.62593,0.29717 -2.63615,0.75712 -3.539623,1.61159 -0.251315,0.23768 -0.363401,0.30457 -0.434737,0.25946 -0.05286,-0.0334 -0.16297,-0.0612 -0.244681,-0.0618 -0.09789,-6.5e-4 -0.340062,-0.19121 -0.709971,-0.55863 -0.308775,-0.3067 -0.638481,-0.57698 -0.732681,-0.60062 -0.370131,-0.0929 -0.712545,0.31637 -0.55464,0.66294 0.07546,0.16562 0.189997,0.25544 0.997609,0.78233 0.268218,0.17498 0.434041,0.32987 0.446834,0.41734 0.01119,0.0765 0.06158,0.17332 0.111994,0.21515 0.07707,0.064 0.06578,0.11517 -0.07099,0.32183 -0.230915,0.34894 -0.5773,1.19995 -0.72325,1.7769 -0.09321,0.36849 -0.124608,0.72696 -0.124975,1.427 -3.35e-4,0.63323 -0.02367,0.93493 -0.07234,0.935 -0.03952,6e-5 -0.122644,0.0562 -0.184727,0.12484 -0.124995,0.13812 -0.261072,0.17055 -1.115197,0.26583 -0.453514,0.0506 -0.6188403,0.0975 -0.7381583,0.20962 -0.2165809,0.20347 -0.2077814,0.52885 0.019129,0.70734 0.2325912,0.18296 0.3358782,0.17398 1.1220612,-0.0975 0.553116,-0.19098 0.729636,-0.22545 0.970078,-0.18939 0.16166,0.0242 0.293926,0.0733 0.293926,0.10898 0,0.0357 0.117484,0.3156 0.261076,0.62201 0.464212,0.99061 1.168743,1.8411 2.040246,2.46292 0.401335,0.28635 0.421214,0.31325 0.412335,0.55804 -0.01023,0.28207 -0.150782,0.59106 -0.54936,1.20774 -0.305469,0.47262 -0.331148,0.71422 -0.100435,0.94493 0.185092,0.18509 0.297453,0.19876 0.551955,0.0671 z"
       id="path4169"
       inkscape:connector-curvature="0" />
    <path
       style="fill:#c5c5c5;stroke-width:0.0656141"
       d="m 16.67049,862.66576 c -0.140365,-0.0952 -0.631588,-0.43923 -1.091606,-0.76446 -0.945702,-0.66861 -0.92847,-0.60384 -0.282491,-1.06172 0.535542,-0.37961 0.980221,-0.59545 1.554648,-0.75464 0.821403,-0.22762 0.756408,-0.34093 0.67523,1.17724 -0.05972,1.11687 -0.08786,1.32998 -0.190608,1.44351 -0.162386,0.17944 -0.359228,0.16762 -0.665173,-0.0399 z"
       id="path4171"
       inkscape:connector-curvature="0" />
    <path
       style="fill:#c5c5c5;stroke-width:0.0656141"
       d="m 19.147363,862.71677 c -0.09607,-0.0961 -0.131071,-0.26406 -0.164035,-0.78738 -0.02304,-0.36588 -0.06075,-0.96446 -0.08379,-1.33019 l -0.04188,-0.66495 0.318129,0.0477 c 0.690756,0.10358 1.71628,0.58918 2.256251,1.06837 l 0.285797,0.25362 -0.978116,0.69307 c -1.31597,0.93247 -1.359809,0.95228 -1.592352,0.71974 z"
       id="path4173"
       inkscape:connector-curvature="0" />
    <path
       style="fill:#c5c5c5;stroke-width:0.0656141"
       d="m 21.959671,865.01882 c -0.667623,-0.19445 -1.265532,-0.39998 -1.328685,-0.45673 -0.148052,-0.13304 -0.147402,-0.44429 0.0012,-0.59135 0.06383,-0.0632 0.509188,-0.46691 0.989678,-0.89722 0.695055,-0.62248 0.886877,-0.7633 0.938482,-0.68895 0.121772,0.17544 0.37124,0.75822 0.477319,1.11507 0.137142,0.46134 0.248911,1.48961 0.18533,1.70502 l -0.0495,0.16771 z"
       id="path4175"
       inkscape:connector-curvature="0" />
    <path
       style="fill:#c5c5c5;stroke-width:0.0656141"
       d="m 20.465697,867.90749 c -0.262325,-0.64051 -0.476391,-1.24118 -0.475702,-1.33483 7.14e-4,-0.0937 0.06123,-0.22455 0.134538,-0.29089 0.129696,-0.11737 0.168987,-0.11471 1.459913,0.099 0.729646,0.12081 1.335262,0.22589 1.345812,0.23353 0.04673,0.0338 -0.326798,0.77697 -0.565113,1.1243 -0.326068,0.47523 -1.216064,1.33392 -1.382131,1.33351 -0.0222,-6e-5 -0.254991,-0.52414 -0.517317,-1.16464 z"
       id="path4177"
       inkscape:connector-curvature="0" />
    <path
       style="fill:#c5c5c5;stroke-width:0.0656141"
       d="m 17.523847,869.85557 c -0.220308,-0.034 -0.504855,-0.0987 -0.632327,-0.14374 l -0.231768,-0.0819 0.614467,-1.11525 c 0.337956,-0.6134 0.665055,-1.15225 0.726884,-1.19746 0.170473,-0.12465 0.377637,-0.0988 0.524822,0.0654 0.07276,0.0812 0.39113,0.61633 0.707491,1.18919 0.447448,0.81023 0.555408,1.05385 0.48608,1.09691 -0.285597,0.17738 -1.556505,0.2855 -2.195649,0.1868 z"
       id="path4179"
       inkscape:connector-curvature="0" />
    <path
       style="fill:#c5c5c5;stroke-width:0.0656141"
       d="m 15.051198,868.74586 c -0.546373,-0.46763 -0.923236,-0.93332 -1.225579,-1.51447 -0.145503,-0.27967 -0.264551,-0.53443 -0.264551,-0.56612 0,-0.0317 0.596762,-0.15578 1.326138,-0.27574 l 1.326137,-0.21812 0.154975,0.18017 c 0.11488,0.13356 0.143897,0.22447 0.112157,0.35137 -0.07276,0.29092 -0.936155,2.33157 -0.994423,2.35033 -0.03024,0.01 -0.225924,-0.1286 -0.434854,-0.30742 z"
       id="path4181"
       inkscape:connector-curvature="0" />
    <path
       style="fill:#c5c5c5;stroke-width:0.0656141"
       d="m 13.250655,864.6704 c 0.0203,-0.41188 0.08595,-0.91127 0.1459,-1.10975 0.145025,-0.48017 0.500663,-1.2552 0.565423,-1.2322 0.0284,0.0101 0.482244,0.40087 1.008551,0.86841 1.405286,1.24837 1.395965,1.29384 -0.370267,1.80569 -0.661776,0.19178 -1.244468,0.364 -1.294871,0.38271 -0.0764,0.0284 -0.0855,-0.0906 -0.05473,-0.71486 z"
       id="path4183"
       inkscape:connector-curvature="0" />
    <path
       style="fill:#c5c5c5;stroke-width:0.0656141"
       d="m 17.893026,865.59541 c -0.339,-0.17179 -0.359675,-0.19711 -0.435517,-0.53343 l -0.07962,-0.35308 0.237531,-0.31167 c 0.234191,-0.30729 0.242764,-0.31167 0.609828,-0.31167 0.362471,0 0.37878,0.008 0.617876,0.29969 l 0.245579,0.2997 -0.08041,0.3789 c -0.07775,0.36638 -0.09163,0.38442 -0.419891,0.54541 l -0.339481,0.16649 z"
       id="path4185"
       inkscape:connector-curvature="0" />
    <circle
       cx="26.15251"
       cy="871.46881"
       id="ellipse3796"
       style="fill:#32cd32;stroke:#c5c5c5;stroke-width:0.48563898"
       r="3.7406356" />
  </g>
</svg>
