<?xml version="1.0" encoding="UTF-8" standalone="no"?>
<!-- Created with Inkscape (http://www.inkscape.org/) -->

<svg
   xmlns:dc="http://purl.org/dc/elements/1.1/"
   xmlns:cc="http://creativecommons.org/ns#"
   xmlns:rdf="http://www.w3.org/1999/02/22-rdf-syntax-ns#"
   xmlns:svg="http://www.w3.org/2000/svg"
   xmlns="http://www.w3.org/2000/svg"
   xmlns:sodipodi="http://sodipodi.sourceforge.net/DTD/sodipodi-0.dtd"
   xmlns:inkscape="http://www.inkscape.org/namespaces/inkscape"
   width="18.035334mm"
   height="17.500378mm"
   viewBox="0 0 18.035334 17.500378"
   version="1.1"
   id="svg13826"
   inkscape:version="0.92.3 (2405546, 2018-03-11)"
   sodipodi:docname="namespace-active.svg">
  <defs
     id="defs13820" />
  <sodipodi:namedview
     id="base"
     pagecolor="#ffffff"
     bordercolor="#666666"
     borderopacity="1.0"
     inkscape:pageopacity="0.0"
     inkscape:pageshadow="2"
     inkscape:zoom="5.6568543"
     inkscape:cx="104.30473"
     inkscape:cy="-16.309279"
     inkscape:document-units="mm"
     inkscape:current-layer="layer1"
     showgrid="false"
     inkscape:window-width="2560"
     inkscape:window-height="1377"
     inkscape:window-x="-8"
     inkscape:window-y="-8"
     inkscape:window-maximized="1"
     fit-margin-top="0"
     fit-margin-left="0"
     fit-margin-right="0"
     fit-margin-bottom="0" />
  <metadata
     id="metadata13823">
    <rdf:RDF>
      <cc:Work
         rdf:about="">
        <dc:format>image/svg+xml</dc:format>
        <dc:type
           rdf:resource="http://purl.org/dc/dcmitype/StillImage" />
        <dc:title></dc:title>
      </cc:Work>
    </rdf:RDF>
  </metadata>
  <g
     inkscape:label="Calque 1"
     inkscape:groupmode="layer"
     id="layer1"
     transform="translate(-0.99262638,-1.174181)">
    <rect
       y="2.5827706"
       x="1.6477722"
       height="14.610257"
       width="16.758114"
       id="rect8790"
       style="opacity:1;fill:none;fill-opacity:1;fill-rule:nonzero;stroke:#c5c5c5;stroke-width:0.87354767;stroke-linecap:butt;stroke-linejoin:round;stroke-miterlimit:10;stroke-dasharray:1.74709531, 0.87354764;stroke-dashoffset:3.44000006;stroke-opacity:1" />
    <g
       id="g3065"
       transform="matrix(0.26458333,0,0,0.26458333,6.0494236,5.912547)">
      <g
         id="text3035"
         style="font-size:100px;font-family:arial">
        <path
           d="M 0,14.355469 2.2460938,7.421875 C 7.4218645,9.2448552 11.181626,10.82363 13.525391,12.158203 12.906885,6.2663426 12.581365,2.2136123 12.548828,0 h 7.080078 c -0.09768,3.2227258 -0.472027,7.2591801 -1.123047,12.109375 3.35284,-1.692646 7.193982,-3.2551444 11.523438,-4.6875 l 2.246094,6.933594 c -4.134146,1.367244 -8.186877,2.278702 -12.158204,2.734375 1.985652,1.725314 4.785129,4.801483 8.398438,9.228515 L 22.65625,30.46875 C 20.768205,27.89718 18.53839,24.397835 15.966797,19.970703 13.557926,24.560595 11.442043,28.059941 9.6191406,30.46875 L 3.8574219,26.318359 C 7.6334528,21.663463 10.335273,18.587294 11.962891,17.089844 7.763661,16.276098 3.7760348,15.364641 0,14.355469"
           id="path3063"
           style="font-size:100px;font-family:arial;fill:#fcfcfc"
           inkscape:connector-curvature="0" />
      </g>
    </g>
  </g>
</svg>
