<?xml version="1.0" encoding="UTF-8" standalone="no"?>
<svg
   xmlns:dc="http://purl.org/dc/elements/1.1/"
   xmlns:cc="http://creativecommons.org/ns#"
   xmlns:rdf="http://www.w3.org/1999/02/22-rdf-syntax-ns#"
   xmlns:svg="http://www.w3.org/2000/svg"
   xmlns="http://www.w3.org/2000/svg"
   xmlns:sodipodi="http://sodipodi.sourceforge.net/DTD/sodipodi-0.dtd"
   xmlns:inkscape="http://www.inkscape.org/namespaces/inkscape"
   height="24"
   width="24"
   version="1.1"
   id="svg14"
   sodipodi:docname="pin-dark.svg"
   inkscape:version="0.92.3 (2405546, 2018-03-11)">
  <metadata
     id="metadata20">
    <rdf:RDF>
      <cc:Work
         rdf:about="">
        <dc:format>image/svg+xml</dc:format>
        <dc:type
           rdf:resource="http://purl.org/dc/dcmitype/StillImage" />
        <dc:title></dc:title>
      </cc:Work>
    </rdf:RDF>
  </metadata>
  <defs
     id="defs18" />
  <sodipodi:namedview
     pagecolor="#ffffff"
     bordercolor="#666666"
     borderopacity="1"
     objecttolerance="10"
     gridtolerance="10"
     guidetolerance="10"
     inkscape:pageopacity="0"
     inkscape:pageshadow="2"
     inkscape:window-width="1920"
     inkscape:window-height="1017"
     id="namedview16"
     showgrid="false"
     inkscape:snap-others="false"
     inkscape:object-nodes="false"
     inkscape:snap-nodes="false"
     inkscape:snap-global="false"
     inkscape:zoom="16"
     inkscape:cx="4.3134781"
     inkscape:cy="8.5584715"
     inkscape:window-x="-8"
     inkscape:window-y="-8"
     inkscape:window-maximized="1"
     inkscape:current-layer="svg14" />
  <g
     transform="translate(0 -1028.4)"
     id="g12">
    <g
       transform="matrix(.70711 .70711 -.70711 .70711 737.68 297.72)"
       id="g10">
      <path
         d="m 11,1028.4 v 13 h 1 6.406 c -0.595,-1.1 -1.416,-2.1 -2.406,-2.8 v -8 c 0.616,-0.6 1.131,-1.4 1.531,-2.2 H 12 Z"
         id="path2"
         inkscape:connector-curvature="0"
         style="fill:#c5c5c5" />
      <path
         d="m 11,13 v 2 l 0,4 0,2 1,2 0.795492,-1.867418 0.0221,-6.022097 0.0221,-2.154679 z"
         transform="translate(0,1028.4)"
         id="path4"
         inkscape:connector-curvature="0"
         style="fill:#c5c5c5"
         sodipodi:nodetypes="ccccccccc" />
      <path
         d="m 6.4688,1028.4 c 0.4006,0.8 0.915,1.6 1.5312,2.2 v 8 c -0.9897,0.7 -1.8113,1.7 -2.4062,2.8 H 12 v -13 z"
         id="path8"
         inkscape:connector-curvature="0"
         style="fill:#c5c5c5" />
    </g>
  </g>
</svg>
