<?xml version="1.0" encoding="UTF-8" standalone="no"?>
<!-- Created with Inkscape (http://www.inkscape.org/) -->

<svg
   xmlns:dc="http://purl.org/dc/elements/1.1/"
   xmlns:cc="http://creativecommons.org/ns#"
   xmlns:rdf="http://www.w3.org/1999/02/22-rdf-syntax-ns#"
   xmlns:svg="http://www.w3.org/2000/svg"
   xmlns="http://www.w3.org/2000/svg"
   xmlns:sodipodi="http://sodipodi.sourceforge.net/DTD/sodipodi-0.dtd"
   xmlns:inkscape="http://www.inkscape.org/namespaces/inkscape"
   width="18.035334mm"
   height="17.500378mm"
   viewBox="0 0 18.035334 17.500378"
   version="1.1"
   id="svg13826"
   inkscape:version="0.92.3 (2405546, 2018-03-11)"
   sodipodi:docname="sa.svg">
  <defs
     id="defs13820" />
  <sodipodi:namedview
     id="base"
     pagecolor="#ffffff"
     bordercolor="#666666"
     borderopacity="1.0"
     inkscape:pageopacity="0.0"
     inkscape:pageshadow="2"
     inkscape:zoom="8"
     inkscape:cx="71.087688"
     inkscape:cy="16.457898"
     inkscape:document-units="mm"
     inkscape:current-layer="layer1"
     showgrid="false"
     inkscape:window-width="2560"
     inkscape:window-height="1377"
     inkscape:window-x="-8"
     inkscape:window-y="-8"
     inkscape:window-maximized="1"
     fit-margin-top="0"
     fit-margin-left="0"
     fit-margin-right="0"
     fit-margin-bottom="0" />
  <metadata
     id="metadata13823">
    <rdf:RDF>
      <cc:Work
         rdf:about="">
        <dc:format>image/svg+xml</dc:format>
        <dc:type
           rdf:resource="http://purl.org/dc/dcmitype/StillImage" />
        <dc:title />
      </cc:Work>
    </rdf:RDF>
  </metadata>
  <g
     inkscape:label="Calque 1"
     inkscape:groupmode="layer"
     id="layer1"
     transform="translate(-0.99262638,-1.174181)">
    <path
       id="path7707"
       pointer-events="none"
       d="m 9.8803668,1.2474844 -7.0858657,3.14896 v 4.7248641 c 0,4.3677295 3.0242532,8.4548555 7.0858657,9.4468745 4.0616202,-0.992019 7.0830342,-5.079145 7.0830342,-9.4468745 V 4.3964444 Z m 0,3.3360325 c 0.9155012,0 1.7431272,0.5526996 2.0917542,1.4001656 0.351455,0.8474661 0.158721,1.8224851 -0.490343,2.4715553 C 10.832707,9.1014689 9.8576968,9.297035 9.010222,8.9455802 8.1655944,8.594115 7.6128941,7.7693164 7.6128941,6.8509881 c 0,-1.2527731 1.0146982,-2.2674712 2.2674727,-2.2674712 z M 14.129059,13.95953 c 0,0.05667 -0.01701,0.110541 -0.04821,0.15872 -0.05098,0.07649 -0.101986,0.155897 -0.15872,0.229578 -1.000526,1.377498 -2.417693,2.395023 -4.0417836,2.89954 -1.6269065,-0.504517 -3.0440838,-1.522042 -4.0446089,-2.89954 -0.056664,-0.07371 -0.107701,-0.153057 -0.15872,-0.229578 -0.031173,-0.04821 -0.048215,-0.101985 -0.048215,-0.15872 v -1.258451 c 0,-1.737447 2.8343546,-2.613261 4.2515222,-2.613261 1.4171793,0 4.2486923,0.875814 4.2486923,2.613261 z"
       inkscape:connector-curvature="0"
       style="fill:#c5c5c5;fill-opacity:1;stroke:none;stroke-width:0.28343454" />
  </g>
</svg>
