<?xml version="1.0" encoding="UTF-8" standalone="no"?>
<svg
   xmlns:dc="http://purl.org/dc/elements/1.1/"
   xmlns:cc="http://creativecommons.org/ns#"
   xmlns:rdf="http://www.w3.org/1999/02/22-rdf-syntax-ns#"
   xmlns:svg="http://www.w3.org/2000/svg"
   xmlns="http://www.w3.org/2000/svg"
   xmlns:sodipodi="http://sodipodi.sourceforge.net/DTD/sodipodi-0.dtd"
   xmlns:inkscape="http://www.inkscape.org/namespaces/inkscape"
   width="16"
   height="16"
   viewBox="0 0 24 24"
   version="1.1"
   id="svg50"
   sodipodi:docname="switch-account.svg"
   inkscape:version="0.92.3 (2405546, 2018-03-11)">
  <metadata
     id="metadata56">
    <rdf:RDF>
      <cc:Work
         rdf:about="">
        <dc:format>image/svg+xml</dc:format>
        <dc:type
           rdf:resource="http://purl.org/dc/dcmitype/StillImage" />
        <dc:title />
      </cc:Work>
    </rdf:RDF>
  </metadata>
  <defs
     id="defs54" />
  <sodipodi:namedview
     pagecolor="#ffffff"
     bordercolor="#666666"
     borderopacity="1"
     objecttolerance="10"
     gridtolerance="10"
     guidetolerance="10"
     inkscape:pageopacity="0"
     inkscape:pageshadow="2"
     inkscape:window-width="2560"
     inkscape:window-height="1377"
     id="namedview52"
     showgrid="false"
     inkscape:zoom="9.8333333"
     inkscape:cx="-29.694916"
     inkscape:cy="12"
     inkscape:window-x="2552"
     inkscape:window-y="-8"
     inkscape:window-maximized="1"
     inkscape:current-layer="svg50" />
  <path
     d="M 1.5254237,1.5254237 H 22.932204 V 22.932204 H 1.5254237 Z"
     id="path46"
     inkscape:connector-curvature="0"
     style="fill:none;stroke-width:0.89194918" />
  <path
     d="m 15.796611,11.336864 c 1.480635,0 2.666927,-1.195212 2.666927,-2.675847 0,-1.4806357 -1.186292,-2.6758476 -2.666927,-2.6758476 -1.480636,0 -2.675848,1.1952119 -2.675848,2.6758476 0,1.480635 1.195212,2.675847 2.675848,2.675847 z m -7.135594,0 c 1.480635,0 2.666928,-1.195212 2.666928,-2.675847 0,-1.4806357 -1.186293,-2.6758476 -2.666928,-2.6758476 -1.4806357,0 -2.6758476,1.1952119 -2.6758476,2.6758476 0,1.480635 1.1952119,2.675847 2.6758476,2.675847 z m 0,1.783899 c -2.0782416,0 -6.2436441,1.043581 -6.2436441,3.121822 v 2.229873 H 14.904661 v -2.229873 c 0,-2.078241 -4.165403,-3.121822 -6.243644,-3.121822 z m 7.135594,0 c -0.258666,0 -0.553009,0.01784 -0.865191,0.04459 1.034661,0.749237 1.75714,1.75714 1.75714,3.077224 v 2.229873 h 5.351694 v -2.229873 c 0,-2.078241 -4.165402,-3.121822 -6.243643,-3.121822 z"
     id="path48"
     inkscape:connector-curvature="0"
     style="fill:#c5c5c5;stroke-width:0.89194918" />
</svg>
