<?xml version="1.0" encoding="UTF-8" standalone="no"?>
<!-- Created with Inkscape (http://www.inkscape.org/) -->

<svg
   xmlns:dc="http://purl.org/dc/elements/1.1/"
   xmlns:cc="http://creativecommons.org/ns#"
   xmlns:rdf="http://www.w3.org/1999/02/22-rdf-syntax-ns#"
   xmlns:svg="http://www.w3.org/2000/svg"
   xmlns="http://www.w3.org/2000/svg"
   xmlns:sodipodi="http://sodipodi.sourceforge.net/DTD/sodipodi-0.dtd"
   xmlns:inkscape="http://www.inkscape.org/namespaces/inkscape"
   width="722.8457"
   height="701.96637"
   id="svg2"
   version="1.1"
   inkscape:version="0.92.3 (2405546, 2018-03-11)"
   sodipodi:docname="cluster-active.svg"
   inkscape:export-filename="/home/thockin/src/kubernetes/new.png"
   inkscape:export-xdpi="460.95001"
   inkscape:export-ydpi="460.95001">
  <defs
     id="defs4" />
  <sodipodi:namedview
     id="base"
     pagecolor="#ffffff"
     bordercolor="#666666"
     borderopacity="1.0"
     inkscape:pageopacity="0.0"
     inkscape:pageshadow="2"
     inkscape:zoom="0.50595341"
     inkscape:cx="923.23763"
     inkscape:cy="489.90389"
     inkscape:document-units="px"
     inkscape:current-layer="layer1"
     showgrid="false"
     inkscape:window-width="2560"
     inkscape:window-height="1377"
     inkscape:window-x="-8"
     inkscape:window-y="-8"
     inkscape:window-maximized="1"
     inkscape:snap-global="false"
     fit-margin-top="10"
     fit-margin-left="10"
     fit-margin-right="10"
     fit-margin-bottom="10" />
  <metadata
     id="metadata7">
    <rdf:RDF>
      <cc:Work
         rdf:about="">
        <dc:format>image/svg+xml</dc:format>
        <dc:type
           rdf:resource="http://purl.org/dc/dcmitype/StillImage" />
        <dc:title />
      </cc:Work>
    </rdf:RDF>
  </metadata>
  <g
     inkscape:label="Layer 1"
     inkscape:groupmode="layer"
     id="layer1"
     transform="translate(-6.3260942,-174.7524)">
    <g
       id="g3052"
       transform="matrix(1.0381681,0,0,1.0381681,-14.705145,-21.133679)">
      <path
         style="fill:none;fill-opacity:1;stroke:#c5c5c5;stroke-width:0;stroke-miterlimit:4;stroke-dasharray:none;stroke-opacity:1"
         d="m 365.3125,184.8125 a 46.724621,46.342246 0 0 0 -17.90625,4.53125 l -244.34375,116.75 a 46.724621,46.342246 0 0 0 -25.28125,31.4375 L 17.5,599.78125 A 46.724621,46.342246 0 0 0 23.84375,635.3125 46.724621,46.342246 0 0 0 26.5,639 l 169.125,210.28125 a 46.724621,46.342246 0 0 0 36.53125,17.4375 L 503.375,866.65625 A 46.724621,46.342246 0 0 0 539.90625,849.25 L 708.96875,638.9375 A 46.724621,46.342246 0 0 0 718,599.71875 l -60.375,-262.25 a 46.724621,46.342246 0 0 0 -25.28125,-31.4375 l -244.375,-116.6875 A 46.724621,46.342246 0 0 0 365.3125,184.8125 Z"
         id="path3055"
         inkscape:connector-curvature="0"
         inkscape:export-filename="new.png"
         inkscape:export-xdpi="250.55"
         inkscape:export-ydpi="250.55" />
      <path
         inkscape:connector-curvature="0"
         id="path3059"
         d="m 367.73366,274.05962 c -8.07696,8.2e-4 -14.62596,7.27591 -14.625,16.25 1e-5,0.13773 0.0282,0.26934 0.0312,0.40625 -0.0119,1.21936 -0.0708,2.68836 -0.0312,3.75 0.19262,5.176 1.3209,9.13749 2,13.90625 1.23028,10.20666 2.26117,18.66736 1.625,26.53125 -0.61869,2.9654 -2.80288,5.67741 -4.75,7.5625 l -0.34375,6.1875 c -8.77682,0.72717 -17.61235,2.05874 -26.4375,4.0625 -37.97461,8.62218 -70.67008,28.18307 -95.5625,54.59375 -1.61522,-1.10193 -4.44103,-3.12914 -5.2813,-3.75 -2.61117,0.35262 -5.25021,1.15829 -8.6875,-0.84375 -6.54491,-4.40563 -12.50587,-10.48693 -19.71875,-17.8125 -3.30498,-3.50419 -5.69832,-6.84101 -9.625,-10.21875 -0.89172,-0.76707 -2.25258,-1.80455 -3.25,-2.59375 -3.06988,-2.44757 -6.6907,-3.72402 -10.1875,-3.84375 -4.49589,-0.15394 -8.82394,1.60385 -11.65625,5.15625 -5.03521,6.31538 -3.42312,15.96805 3.59375,21.5625 0.0712,0.0567 0.14702,0.10078 0.21875,0.15625 0.96422,0.78162 2.14496,1.78313 3.03125,2.4375 4.16687,3.07655 7.9732,4.65145 12.125,7.09375 8.747,5.40181 15.99837,9.88086 21.75,15.28125 2.24602,2.39417 2.63858,6.61292 2.9375,8.4375 l 4.6875,4.1875 c -25.09342,37.76368 -36.70686,84.40946 -29.8437,131.9375 l -6.125,1.78125 c -1.6143,2.08461 -3.89541,5.36474 -6.2813,6.34375 -7.52513,2.37021 -15.99424,3.24059 -26.21875,4.3125 -4.80031,0.39915 -8.94218,0.16095 -14.03125,1.125 -1.12008,0.21218 -2.68072,0.61877 -3.90625,0.90625 -0.0426,0.009 -0.0824,0.0216 -0.125,0.0312 -0.0668,0.0155 -0.15456,0.0479 -0.21875,0.0625 -8.62014,2.08279 -14.15774,10.006 -12.375,17.8125 1.78316,7.80833 10.20314,12.55677 18.875,10.6875 0.0626,-0.0143 0.1535,-0.0167 0.21875,-0.0312 0.0979,-0.0224 0.18409,-0.0699 0.28125,-0.0937 1.20885,-0.26536 2.72377,-0.5606 3.78125,-0.84375 5.00334,-1.33963 8.62694,-3.30796 13.125,-5.03125 9.67694,-3.47077 17.69173,-6.37022 25.5,-7.5 3.26118,-0.25542 6.69711,2.01216 8.40625,2.96875 l 6.375,-1.09375 c 14.67018,45.48282 45.41416,82.24502 84.34375,105.3125 l -2.65625,6.375 c 0.95742,2.47542 2.01341,5.8247 1.30022,8.26932 -2.83868,7.3612 -7.70097,15.13097 -13.23772,23.79318 -2.68085,4.00192 -5.42453,7.10761 -7.84375,11.6875 -0.5789,1.09589 -1.31618,2.77932 -1.875,3.9375 -3.75884,8.04236 -1.00164,17.3052 6.21875,20.78125 7.26575,3.49788 16.28447,-0.19134 20.1875,-8.25 0.006,-0.0114 0.0257,-0.0198 0.0312,-0.0312 0.004,-0.009 -0.004,-0.0225 0,-0.0312 0.55593,-1.14255 1.34353,-2.64437 1.8125,-3.71875 2.07213,-4.74702 2.76161,-8.81506 4.21875,-13.40625 3.86962,-9.72014 5.99567,-19.91903 11.32258,-26.27411 1.45868,-1.74023 3.83681,-2.4095 6.30242,-3.06964 l 3.3125,-6 c 33.93824,13.0268 71.92666,16.52246 109.875,7.90625 8.65697,-1.96557 17.01444,-4.50945 25.09375,-7.5625 0.93098,1.65133 2.66113,4.8257 3.125,5.625 2.50559,0.81518 5.24044,1.23614 7.46875,4.53125 3.98539,6.80898 6.7109,14.86416 10.03125,24.59375 1.45738,4.59111 2.17762,8.65933 4.25,13.40625 0.47234,1.08195 1.256,2.60486 1.8125,3.75 3.89482,8.08484 12.94212,11.78667 20.21875,8.28125 7.2195,-3.4779 9.97974,-12.7399 6.21875,-20.78125 -0.55889,-1.15814 -1.3273,-2.84164 -1.90625,-3.9375 -2.41946,-4.57976 -5.1627,-7.65448 -7.84375,-11.65625 -5.53721,-8.66192 -10.12968,-15.8577 -12.96875,-23.21875 -1.18711,-3.79657 0.20028,-6.15774 1.125,-8.625 -0.55378,-0.63477 -1.73881,-4.22009 -2.4375,-5.90625 40.4574,-23.88816 70.29856,-62.02129 84.3125,-106.0625 1.8924,0.29742 5.18154,0.87936 6.25,1.09375 2.19954,-1.4507 4.22194,-3.34352 8.1875,-3.03125 7.80832,1.12937 15.82288,4.02973 25.5,7.5 4.49815,1.72306 8.1216,3.72313 13.125,5.0625 1.05749,0.28309 2.57238,0.5472 3.78125,0.8125 0.0972,0.0238 0.1833,0.0714 0.28125,0.0937 0.0653,0.0146 0.15615,0.0169 0.21875,0.0312 8.67236,1.86695 17.09384,-2.87871 18.875,-10.6875 1.78074,-7.80696 -3.7543,-15.73201 -12.375,-17.8125 -1.25393,-0.28513 -3.03225,-0.76938 -4.25,-1 -5.08912,-0.96378 -9.23092,-0.7261 -14.03125,-1.125 -10.22456,-1.07138 -18.6935,-1.94269 -26.21875,-4.3125 -3.06826,-1.19028 -5.25103,-4.84124 -6.31255,-6.34375 l -5.90625,-1.71875 c 3.06226,-22.15442 2.23655,-45.21134 -3.0625,-68.28125 -5.34839,-23.28471 -14.80037,-44.58084 -27.40625,-63.34375 1.51505,-1.37729 4.37619,-3.91091 5.1875,-4.65625 0.23716,-2.62417 0.0334,-5.37553 2.75,-8.28125 5.75134,-5.40069 13.00329,-9.87898 21.75,-15.28125 4.15167,-2.44252 7.98954,-4.01698 12.15625,-7.09375 0.94225,-0.69576 2.2289,-1.79759 3.21875,-2.59375 7.01538,-5.59633 8.63058,-15.24842 3.59375,-21.5625 -5.03683,-6.31408 -14.79712,-6.90883 -21.8125,-1.3125 -0.99856,0.79085 -2.35353,1.82252 -3.25,2.59375 -3.9265,3.37796 -6.35145,6.71439 -9.65625,10.21875 -7.21249,7.32595 -13.17407,13.43777 -19.71875,17.84375 -2.83601,1.65106 -6.98996,1.07978 -8.87505,0.96875 l -5.5625,3.96875 c -31.7188,-33.26057 -74.90466,-54.52546 -121.40605,-58.6563 -0.13006,-1.94872 -0.30045,-5.47117 -0.34375,-6.53125 -1.90371,-1.82165 -4.20342,-3.37686 -4.78125,-7.3125 -0.63617,-7.86389 0.42597,-16.32459 1.65625,-26.53125 0.6791,-4.76876 1.80738,-8.73025 2,-13.90625 0.0438,-1.17663 -0.0265,-2.88401 -0.0312,-4.15625 -9.6e-4,-8.97409 -6.54804,-16.25082 -14.625,-16.25 z m -18.3125,113.4375 -4.34375,76.71875 -0.3125,0.15625 c -0.29134,6.86335 -5.93996,12.34375 -12.875,12.34375 -2.84081,0 -5.46294,-0.91229 -7.59375,-2.46875 l -0.125,0.0625 -62.90625,-44.59375 c 19.33365,-19.01115 44.06291,-33.06039 72.5625,-39.53125 5.20599,-1.18203 10.40966,-2.0591 15.59375,-2.6875 z m 36.65625,0 c 33.27347,4.09232 64.04501,19.15882 87.625,42.25 l -62.5,44.3125 -0.21875,-0.0937 c -5.54745,4.05169 -13.36343,3.04639 -17.6875,-2.375 -1.77132,-2.22096 -2.70072,-4.83239 -2.8125,-7.46875 l -0.0625,-0.0312 z m -147.625,70.875 57.4375,51.375 -0.0625,0.3125 c 5.18437,4.50697 5.94888,12.32794 1.625,17.75 -1.7712,2.22105 -4.14208,3.71074 -6.6875,4.40625 l -0.0625,0.25 -73.625,21.25 c -3.74728,-34.26517 4.32855,-67.57364 21.375,-95.34375 z m 258.15625,0.0312 c 8.5341,13.83256 14.99655,29.28214 18.84375,46.03125 3.80106,16.54828 4.75499,33.06697 3.1875,49.03125 l -74,-21.3125 -0.0625,-0.3125 c -6.6265,-1.81104 -10.69893,-8.55162 -9.15625,-15.3125 0.63203,-2.76962 2.10222,-5.11264 4.09375,-6.84375 l -0.0312,-0.15625 57.125,-51.125 z m -140.65625,55.3125 h 23.53125 l 14.625,18.28125 -5.25,22.8125 -21.125,10.15625 -21.1875,-10.1875 -5.25,-22.8125 z m 75.4375,62.5625 c 0.99997,-0.0505 1.99558,0.0396 2.96875,0.21875 l 0.125,-0.15625 76.15625,12.875 c -11.1455,31.3131 -32.47281,58.44018 -60.96875,76.59375 l -29.5625,-71.40625 0.0937,-0.125 c -2.71561,-6.30999 0.002,-13.70956 6.25,-16.71875 1.59965,-0.77041 3.27089,-1.19701 4.9375,-1.28125 z m -127.90625,0.3125 c 5.81174,0.0815 11.02462,4.11525 12.375,10.03125 0.63219,2.76958 0.3245,5.51375 -0.71875,7.9375 l 0.21875,0.28125 -29.25,70.6875 c -27.34716,-17.5486 -49.12927,-43.82403 -60.78125,-76.06245 l 75.5,-12.8125 0.125,0.15625 c 0.84451,-0.15541 1.701,-0.2304 2.53125,-0.21875 z m 63.78125,30.9688 c 2.02445,-0.0744 4.07865,0.34098 6.03125,1.28125 2.55951,1.23253 4.53673,3.17319 5.78125,5.5 h 0.28125 l 37.21875,67.25 c -4.83029,1.61923 -9.79609,3.00308 -14.875,4.15625 -28.46453,6.4629 -56.83862,4.50467 -82.53125,-4.25 l 37.125,-67.125 h 0.0625 c 2.22767,-4.16441 6.45247,-6.64887 10.90625,-6.8125 z"
         style="color:#000000;font-style:normal;font-variant:normal;font-weight:normal;font-stretch:normal;font-size:medium;line-height:normal;font-family:Sans;-inkscape-font-specification:Sans;text-indent:0;text-align:start;text-decoration:none;text-decoration-line:none;letter-spacing:normal;word-spacing:normal;text-transform:none;writing-mode:lr-tb;direction:ltr;baseline-shift:baseline;text-anchor:start;display:inline;overflow:visible;visibility:visible;fill:none;fill-opacity:1;stroke:#ffffff;stroke-width:0.25;stroke-miterlimit:4;stroke-dasharray:none;stroke-opacity:1;marker:none;enable-background:accumulate"
         sodipodi:nodetypes="ccccccccsccccscssccsccccccccscccsccccccccccccccscccscsccsccccscscsccccccccscccscsccccsccccscscscccccccccccccccscccsccccccccccccscccccscccccccccccccccccccccccscccscccccccccscccscccc"
         inkscape:export-filename="./path3059.png"
         inkscape:export-xdpi="250.55"
         inkscape:export-ydpi="250.55" />
    </g>
    <path
       style="fill:#424242;stroke-width:2.05190468"
       d="m 218.64502,869.21794 c -4.09003,-0.79803 -10.25938,-3.23832 -13.70962,-5.42286 -6.48013,-4.10293 -184.581393,-223.91362 -190.148559,-234.67934 -1.721163,-3.32835 -3.127429,-10.48337 -3.125037,-15.9 0.0049,-11.15846 61.920198,-282.79437 66.438099,-291.47854 1.612815,-3.1001 5.230125,-7.78262 8.038472,-10.40561 2.808349,-2.62298 64.068485,-33.07226 136.133655,-67.66508 130.07568,-62.43912 131.12442,-62.89637 144.36491,-62.94379 13.28705,-0.0476 13.82135,0.18331 141.58142,61.18387 70.53422,33.6774 131.59475,63.39473 135.69008,66.03853 4.29247,2.77104 9.22551,8.55763 11.6476,13.66288 4.48623,9.45605 68.14906,283.12532 68.05849,292.5651 -0.0296,3.08518 -1.64548,9.03781 -3.59083,13.22805 -4.4767,9.64264 -181.72761,230.18676 -189.38004,235.63577 -3.12316,2.22389 -10.49591,4.95706 -16.38385,6.07368 -12.20975,2.31553 -283.79199,2.41415 -295.61479,0.10732 z m 43.07127,-85.14161 c 5.94803,-3.07584 8.52625,-8.091 17.68108,-34.39342 4.26178,-12.24437 7.10456,-17.01321 12.67421,-21.2614 7.16224,-5.46287 7.20656,-5.4684 17.78881,-2.21806 21.95245,6.7427 31.87891,8.09711 58.82846,8.02679 23.146,-0.0603 31.06187,-0.95519 48.14248,-5.44177 17.75445,-4.66356 20.66764,-4.96582 22.15994,-2.29922 0.94498,1.68859 3.0336,3.07017 4.64137,3.07017 3.70761,0 7.18499,6.9189 14.24672,28.34666 8.51427,25.83528 18.69664,34.19289 30.42174,24.96991 9.1684,-7.21187 7.7287,-16.25583 -6.04333,-37.96303 -9.0386,-14.24643 -11.75619,-20.42384 -12.31755,-27.99915 -0.70911,-9.56937 -0.56934,-9.82252 9.0324,-16.35807 14.0329,-9.5517 38.51041,-33.61822 48.8131,-47.99354 8.4635,-11.80912 23.78689,-41.11133 26.07552,-49.8631 0.80417,-3.07518 3.4511,-4.49505 10.29196,-5.5209 7.57686,-1.13623 13.09503,-0.0394 31.12983,6.1879 23.22895,8.02075 28.90278,8.17397 36.1018,0.97494 5.45703,-5.45701 5.1076,-13.44168 -0.84889,-19.39817 -5.08408,-5.08406 -6.73585,-5.507 -36.88001,-9.44295 -13.18203,-1.7212 -19.0925,-3.43578 -21.48803,-6.23356 -1.81744,-2.12261 -4.32251,-3.8593 -5.56683,-3.8593 -1.52498,0 -2.26537,-8.19299 -2.2715,-25.13583 -0.0122,-36.59808 -6.051,-61.79026 -22.53559,-94.02812 l -8.99691,-17.5947 3.50612,-7.02815 c 4.18826,-8.3956 7.87076,-11.60335 24.72918,-21.54118 7.04103,-4.15059 15.1204,-9.86508 17.95416,-12.69885 10.23183,-10.23182 4.42216,-27.16362 -9.3204,-27.16362 -5.0855,0 -9.91489,3.47697 -25.65012,18.46713 -12.52959,11.9363 -21.01729,18.47827 -24.00051,18.49856 -2.53852,0.0164 -5.9379,0.86829 -7.55423,1.8911 -2.15073,1.361 -6.35334,-1.261 -15.67242,-9.77797 -24.96358,-22.81495 -67.9409,-43.35913 -97.76318,-46.73313 -10.777,-1.21929 -12.14172,-1.95922 -16.16943,-8.7669 -4.63273,-7.83027 -4.62217,-7.04012 -0.619,-46.4214 1.08499,-10.67361 0.65669,-13.0621 -3.21951,-17.95418 -4.97391,-6.2774 -14.97992,-7.66984 -21.39692,-2.9776 -4.78998,3.50252 -6.93685,14.57386 -5.05364,26.06153 4.03297,24.60105 0.64399,46.62898 -7.40005,48.09917 -50.84661,9.29309 -82.43851,23.67683 -110.69222,50.39799 -7.85922,7.43295 -11.36439,9.52488 -13.59522,8.11393 -1.6532,-1.0456 -5.09647,-1.91527 -7.65174,-1.93254 -3.06118,-0.0207 -10.63455,-5.97972 -22.20246,-17.46977 -9.6561,-9.59111 -19.96678,-18.04329 -22.91261,-18.78265 -11.57488,-2.90511 -22.28294,9.89374 -17.3449,20.73156 2.35985,5.17928 5.94165,7.98816 31.19756,24.4653 8.38778,5.47226 13.57346,10.31564 13.97354,13.05115 0.34989,2.39236 1.92593,5.42014 3.50231,6.72843 2.4102,2.00028 2.05706,3.6013 -2.22003,10.0644 -7.22127,10.91207 -18.05354,37.52509 -22.61771,55.56777 -2.91503,11.52346 -3.89679,22.73349 -3.90827,44.62544 -0.0105,19.80254 -0.7403,29.23728 -2.26218,29.23965 -1.23577,0.002 -3.83536,1.75876 -5.77686,3.90409 -3.90889,4.31927 -8.16431,5.33362 -34.87478,8.31294 -14.18244,1.58192 -19.35258,3.0502 -23.08393,6.55561 -6.772987,6.36289 -6.497805,16.53829 0.59821,22.12 7.27366,5.72148 10.5037,5.44086 35.08945,-3.04839 17.29723,-5.97256 22.81741,-7.0503 30.3366,-5.92271 5.05547,0.75811 9.19175,2.29166 9.19175,3.40792 0,1.11626 3.67399,9.86967 8.16443,19.452 14.51701,30.9785 36.54932,57.57507 63.80322,77.0209 12.55069,8.95498 13.17234,9.7963 12.89467,17.45122 -0.31998,8.8211 -4.71528,18.48398 -17.17976,37.76897 -9.55272,14.77989 -10.35575,22.33522 -3.14083,29.55012 5.78826,5.78827 9.30205,6.2158 17.26093,2.10008 z"
       id="path4169"
       inkscape:connector-curvature="0" />
    <path
       style="fill:#424242;stroke-width:2.05190468"
       d="m 318.19054,467.65715 c -4.38952,-2.97782 -19.7512,-13.73576 -34.13704,-23.90652 -29.5743,-20.90901 -29.03541,-18.88365 -8.83416,-33.20261 16.74766,-11.87099 30.65379,-18.62107 48.61746,-23.59905 25.68717,-7.11829 23.65461,-10.66197 21.11601,36.81473 -1.86758,34.92712 -2.74758,41.59164 -5.96077,45.14217 -5.07819,5.61135 -11.2339,5.24182 -20.8015,-1.24872 z"
       id="path4171"
       inkscape:connector-curvature="0" />
    <path
       style="fill:#424242;stroke-width:2.05190468"
       d="m 395.64811,469.25204 c -3.00451,-3.00451 -4.09889,-8.25747 -5.12976,-24.62285 -0.72076,-11.44195 -1.89987,-30.16111 -2.62027,-41.59814 l -1.30983,-20.79459 9.9486,1.49188 c 21.60154,3.23936 53.67208,18.42522 70.55821,33.41035 l 8.93754,7.93138 -30.58794,21.674 c -41.15346,29.1605 -42.52439,29.78014 -49.79655,22.50797 z"
       id="path4173"
       inkscape:connector-curvature="0" />
    <path
       style="fill:#424242;stroke-width:2.05190468"
       d="m 483.59551,541.24277 c -20.87814,-6.08094 -39.57612,-12.50831 -41.55107,-14.28304 -4.62992,-4.16054 -4.60961,-13.89424 0.0386,-18.49303 1.99618,-1.97495 15.92346,-14.60113 30.94952,-28.05817 21.73596,-19.46627 27.73471,-23.87001 29.34852,-21.54498 3.80808,5.48634 11.6095,23.7113 14.92684,34.87076 4.28875,14.42721 7.78404,46.58368 5.79573,53.32029 l -1.5479,5.24443 z"
       id="path4175"
       inkscape:connector-curvature="0" />
    <path
       style="fill:#424242;stroke-width:2.05190468"
       d="m 436.87547,631.5779 c -8.20353,-20.03001 -14.89788,-38.81435 -14.87631,-41.74294 0.0216,-2.9286 1.91484,-7.02215 4.2073,-9.09679 4.05591,-3.67055 5.28463,-3.5872 45.65487,3.09661 22.81773,3.77775 41.75674,7.06401 42.08669,7.30279 1.46153,1.05767 -10.21975,24.29788 -17.6724,35.15971 -10.19692,14.86146 -38.02915,41.7146 -43.22243,41.70193 -0.69421,-0.002 -7.97419,-16.39128 -16.17772,-36.42131 z"
       id="path4177"
       inkscape:connector-curvature="0" />
    <path
       style="fill:#424242;stroke-width:2.05190468"
       d="m 344.87698,692.49914 c -6.88952,-1.06391 -15.78796,-3.08666 -19.77431,-4.49503 l -7.24791,-2.56063 19.21579,-34.87661 c 10.56868,-19.18213 20.7978,-36.03339 22.73136,-37.44725 5.33109,-3.89819 11.80957,-3.09051 16.41238,2.04612 2.27533,2.53924 12.23154,19.27421 22.12489,37.18881 13.99274,25.33765 17.36891,32.95649 15.20083,34.30301 -8.93124,5.54685 -48.6755,8.92813 -68.66303,5.84158 z"
       id="path4179"
       inkscape:connector-curvature="0" />
    <path
       style="fill:#424242;stroke-width:2.05190468"
       d="m 267.55153,657.79594 c -17.08637,-14.62393 -28.87173,-29.18727 -38.3267,-47.36092 -4.55021,-8.74609 -8.27311,-16.71289 -8.27311,-17.70399 0,-0.99111 18.66212,-4.87149 41.47139,-8.62307 l 41.47138,-6.82104 4.84644,5.63432 c 3.59255,4.17658 4.49999,7.0195 3.50741,10.98827 -2.27531,9.09772 -29.27574,72.9134 -31.09792,73.50018 -0.94568,0.30451 -7.06519,-4.02167 -13.59889,-9.61375 z"
       id="path4181"
       inkscape:connector-curvature="0" />
    <path
       style="fill:#424242;stroke-width:2.05190468"
       d="m 211.24436,530.34673 c 0.63478,-12.88042 2.68797,-28.49741 4.56266,-34.70443 4.53523,-15.01604 15.65689,-39.2529 17.68208,-38.53366 0.88802,0.31539 15.0809,12.53612 31.53971,27.15719 43.94657,39.03964 43.65508,40.46113 -11.5791,56.46813 -20.69526,5.99753 -38.9174,11.38322 -40.49363,11.96818 -2.38917,0.88664 -2.67389,-2.83186 -1.71172,-22.35541 z"
       id="path4183"
       inkscape:connector-curvature="0" />
    <path
       style="fill:#424242;stroke-width:2.05190468"
       d="m 356.42207,559.27397 c -10.60132,-5.37209 -11.24787,-6.16401 -13.6196,-16.68158 l -2.48993,-11.04176 7.42812,-9.74655 c 7.32371,-9.60953 7.59179,-9.74654 19.07075,-9.74654 11.3353,0 11.84531,0.24738 19.32241,9.37219 l 7.6798,9.37219 -2.51456,11.84919 c -2.43143,11.45742 -2.86558,12.02134 -13.13094,17.05594 l -10.61636,5.20676 z"
       id="path4185"
       inkscape:connector-curvature="0" />
  </g>
</svg>
